<mxfile host="app.diagrams.net" modified="2021-04-13T11:55:37.803Z" agent="5.0 (Macintosh; Intel Mac OS X 11_2_3) AppleWebKit/537.36 (KHTML, like Gecko) Chrome/89.0.4389.114 Safari/537.36" etag="KtuDKo8sAb6aHbax8EO_" version="14.6.0" type="github">
  <diagram id="E1g6lZXWzdLoxk-MHo4i" name="Page-1">
    <mxGraphModel dx="1426" dy="827" grid="1" gridSize="10" guides="1" tooltips="1" connect="1" arrows="1" fold="1" page="1" pageScale="1" pageWidth="827" pageHeight="1169" math="0" shadow="0">
      <root>
        <mxCell id="0" />
        <mxCell id="1" parent="0" />
        <mxCell id="dK96n8MNeCOPLc1kFUHf-1" value="roles 数组" style="text;html=1;strokeColor=none;align=center;verticalAlign=middle;whiteSpace=wrap;rounded=0;strokeWidth=2;shadow=1;fontStyle=1" vertex="1" parent="1">
          <mxGeometry x="130" y="170" width="70" height="20" as="geometry" />
        </mxCell>
        <mxCell id="dK96n8MNeCOPLc1kFUHf-3" value="" style="shape=table;html=1;whiteSpace=wrap;startSize=0;container=1;collapsible=0;childLayout=tableLayout;strokeWidth=2;shadow=1;" vertex="1" parent="1">
          <mxGeometry x="210" y="160" width="420" height="40" as="geometry" />
        </mxCell>
        <mxCell id="dK96n8MNeCOPLc1kFUHf-4" value="" style="shape=partialRectangle;html=1;whiteSpace=wrap;collapsible=0;dropTarget=0;pointerEvents=0;fillColor=none;top=0;left=0;bottom=0;right=0;points=[[0,0.5],[1,0.5]];portConstraint=eastwest;strokeWidth=2;shadow=1;" vertex="1" parent="dK96n8MNeCOPLc1kFUHf-3">
          <mxGeometry width="420" height="40" as="geometry" />
        </mxCell>
        <mxCell id="dK96n8MNeCOPLc1kFUHf-29" value="狼人" style="shape=partialRectangle;html=1;whiteSpace=wrap;connectable=0;fillColor=none;top=0;left=0;bottom=0;right=0;overflow=hidden;strokeWidth=2;shadow=1;" vertex="1" parent="dK96n8MNeCOPLc1kFUHf-4">
          <mxGeometry width="60" height="40" as="geometry" />
        </mxCell>
        <mxCell id="dK96n8MNeCOPLc1kFUHf-28" value="狼人" style="shape=partialRectangle;html=1;whiteSpace=wrap;connectable=0;fillColor=none;top=0;left=0;bottom=0;right=0;overflow=hidden;strokeWidth=2;shadow=1;" vertex="1" parent="dK96n8MNeCOPLc1kFUHf-4">
          <mxGeometry x="60" width="60" height="40" as="geometry" />
        </mxCell>
        <mxCell id="dK96n8MNeCOPLc1kFUHf-5" value="平民" style="shape=partialRectangle;html=1;whiteSpace=wrap;connectable=0;fillColor=none;top=0;left=0;bottom=0;right=0;overflow=hidden;strokeWidth=2;shadow=1;" vertex="1" parent="dK96n8MNeCOPLc1kFUHf-4">
          <mxGeometry x="120" width="60" height="40" as="geometry" />
        </mxCell>
        <mxCell id="dK96n8MNeCOPLc1kFUHf-6" value="平民" style="shape=partialRectangle;html=1;whiteSpace=wrap;connectable=0;fillColor=none;top=0;left=0;bottom=0;right=0;overflow=hidden;strokeWidth=2;shadow=1;" vertex="1" parent="dK96n8MNeCOPLc1kFUHf-4">
          <mxGeometry x="180" width="60" height="40" as="geometry" />
        </mxCell>
        <mxCell id="dK96n8MNeCOPLc1kFUHf-7" value="平民" style="shape=partialRectangle;html=1;whiteSpace=wrap;connectable=0;fillColor=none;top=0;left=0;bottom=0;right=0;overflow=hidden;strokeWidth=2;shadow=1;" vertex="1" parent="dK96n8MNeCOPLc1kFUHf-4">
          <mxGeometry x="240" width="60" height="40" as="geometry" />
        </mxCell>
        <mxCell id="dK96n8MNeCOPLc1kFUHf-26" value="预言家" style="shape=partialRectangle;html=1;whiteSpace=wrap;connectable=0;fillColor=none;top=0;left=0;bottom=0;right=0;overflow=hidden;strokeWidth=2;shadow=1;" vertex="1" parent="dK96n8MNeCOPLc1kFUHf-4">
          <mxGeometry x="300" width="60" height="40" as="geometry" />
        </mxCell>
        <mxCell id="dK96n8MNeCOPLc1kFUHf-27" value="女巫" style="shape=partialRectangle;html=1;whiteSpace=wrap;connectable=0;fillColor=none;top=0;left=0;bottom=0;right=0;overflow=hidden;strokeWidth=2;shadow=1;" vertex="1" parent="dK96n8MNeCOPLc1kFUHf-4">
          <mxGeometry x="360" width="60" height="40" as="geometry" />
        </mxCell>
        <mxCell id="dK96n8MNeCOPLc1kFUHf-30" value="randomRole数组" style="text;html=1;strokeColor=none;align=center;verticalAlign=middle;whiteSpace=wrap;rounded=0;strokeWidth=2;shadow=1;fontStyle=1" vertex="1" parent="1">
          <mxGeometry x="100" y="290" width="100" height="20" as="geometry" />
        </mxCell>
        <mxCell id="dK96n8MNeCOPLc1kFUHf-31" value="" style="shape=table;html=1;whiteSpace=wrap;startSize=0;container=1;collapsible=0;childLayout=tableLayout;strokeWidth=2;shadow=1;" vertex="1" parent="1">
          <mxGeometry x="210" y="260" width="420" height="80" as="geometry" />
        </mxCell>
        <mxCell id="dK96n8MNeCOPLc1kFUHf-32" value="" style="shape=partialRectangle;html=1;whiteSpace=wrap;collapsible=0;dropTarget=0;pointerEvents=0;fillColor=none;top=0;left=0;bottom=0;right=0;points=[[0,0.5],[1,0.5]];portConstraint=eastwest;strokeWidth=2;shadow=1;" vertex="1" parent="dK96n8MNeCOPLc1kFUHf-31">
          <mxGeometry width="420" height="40" as="geometry" />
        </mxCell>
        <mxCell id="dK96n8MNeCOPLc1kFUHf-33" value="3" style="shape=partialRectangle;html=1;whiteSpace=wrap;connectable=0;fillColor=none;top=0;left=0;bottom=0;right=0;overflow=hidden;strokeWidth=2;shadow=1;" vertex="1" parent="dK96n8MNeCOPLc1kFUHf-32">
          <mxGeometry width="60" height="40" as="geometry" />
        </mxCell>
        <mxCell id="dK96n8MNeCOPLc1kFUHf-34" value="5" style="shape=partialRectangle;html=1;whiteSpace=wrap;connectable=0;fillColor=none;top=0;left=0;bottom=0;right=0;overflow=hidden;strokeWidth=2;shadow=1;" vertex="1" parent="dK96n8MNeCOPLc1kFUHf-32">
          <mxGeometry x="60" width="60" height="40" as="geometry" />
        </mxCell>
        <mxCell id="dK96n8MNeCOPLc1kFUHf-35" value="0" style="shape=partialRectangle;html=1;whiteSpace=wrap;connectable=0;fillColor=none;top=0;left=0;bottom=0;right=0;overflow=hidden;strokeWidth=2;shadow=1;" vertex="1" parent="dK96n8MNeCOPLc1kFUHf-32">
          <mxGeometry x="120" width="60" height="40" as="geometry" />
        </mxCell>
        <mxCell id="dK96n8MNeCOPLc1kFUHf-36" value="2" style="shape=partialRectangle;html=1;whiteSpace=wrap;connectable=0;fillColor=none;top=0;left=0;bottom=0;right=0;overflow=hidden;strokeWidth=2;shadow=1;" vertex="1" parent="dK96n8MNeCOPLc1kFUHf-32">
          <mxGeometry x="180" width="60" height="40" as="geometry" />
        </mxCell>
        <mxCell id="dK96n8MNeCOPLc1kFUHf-37" value="6" style="shape=partialRectangle;html=1;whiteSpace=wrap;connectable=0;fillColor=none;top=0;left=0;bottom=0;right=0;overflow=hidden;strokeWidth=2;shadow=1;" vertex="1" parent="dK96n8MNeCOPLc1kFUHf-32">
          <mxGeometry x="240" width="60" height="40" as="geometry" />
        </mxCell>
        <mxCell id="dK96n8MNeCOPLc1kFUHf-38" value="1" style="shape=partialRectangle;html=1;whiteSpace=wrap;connectable=0;fillColor=none;top=0;left=0;bottom=0;right=0;overflow=hidden;strokeWidth=2;shadow=1;" vertex="1" parent="dK96n8MNeCOPLc1kFUHf-32">
          <mxGeometry x="300" width="60" height="40" as="geometry" />
        </mxCell>
        <mxCell id="dK96n8MNeCOPLc1kFUHf-39" value="4" style="shape=partialRectangle;html=1;whiteSpace=wrap;connectable=0;fillColor=none;top=0;left=0;bottom=0;right=0;overflow=hidden;strokeWidth=2;shadow=1;" vertex="1" parent="dK96n8MNeCOPLc1kFUHf-32">
          <mxGeometry x="360" width="60" height="40" as="geometry" />
        </mxCell>
        <mxCell id="dK96n8MNeCOPLc1kFUHf-40" style="shape=partialRectangle;html=1;whiteSpace=wrap;collapsible=0;dropTarget=0;pointerEvents=0;fillColor=none;top=0;left=0;bottom=0;right=0;points=[[0,0.5],[1,0.5]];portConstraint=eastwest;strokeWidth=2;shadow=1;" vertex="1" parent="dK96n8MNeCOPLc1kFUHf-31">
          <mxGeometry y="40" width="420" height="40" as="geometry" />
        </mxCell>
        <mxCell id="dK96n8MNeCOPLc1kFUHf-41" value="0" style="shape=partialRectangle;html=1;whiteSpace=wrap;connectable=0;fillColor=none;top=0;left=0;bottom=0;right=0;overflow=hidden;strokeWidth=2;shadow=1;" vertex="1" parent="dK96n8MNeCOPLc1kFUHf-40">
          <mxGeometry width="60" height="40" as="geometry" />
        </mxCell>
        <mxCell id="dK96n8MNeCOPLc1kFUHf-42" value="1" style="shape=partialRectangle;html=1;whiteSpace=wrap;connectable=0;fillColor=none;top=0;left=0;bottom=0;right=0;overflow=hidden;strokeWidth=2;shadow=1;" vertex="1" parent="dK96n8MNeCOPLc1kFUHf-40">
          <mxGeometry x="60" width="60" height="40" as="geometry" />
        </mxCell>
        <mxCell id="dK96n8MNeCOPLc1kFUHf-43" value="2" style="shape=partialRectangle;html=1;whiteSpace=wrap;connectable=0;fillColor=none;top=0;left=0;bottom=0;right=0;overflow=hidden;strokeWidth=2;shadow=1;" vertex="1" parent="dK96n8MNeCOPLc1kFUHf-40">
          <mxGeometry x="120" width="60" height="40" as="geometry" />
        </mxCell>
        <mxCell id="dK96n8MNeCOPLc1kFUHf-44" value="3" style="shape=partialRectangle;html=1;whiteSpace=wrap;connectable=0;fillColor=none;top=0;left=0;bottom=0;right=0;overflow=hidden;strokeWidth=2;shadow=1;" vertex="1" parent="dK96n8MNeCOPLc1kFUHf-40">
          <mxGeometry x="180" width="60" height="40" as="geometry" />
        </mxCell>
        <mxCell id="dK96n8MNeCOPLc1kFUHf-45" value="4" style="shape=partialRectangle;html=1;whiteSpace=wrap;connectable=0;fillColor=none;top=0;left=0;bottom=0;right=0;overflow=hidden;strokeWidth=2;shadow=1;" vertex="1" parent="dK96n8MNeCOPLc1kFUHf-40">
          <mxGeometry x="240" width="60" height="40" as="geometry" />
        </mxCell>
        <mxCell id="dK96n8MNeCOPLc1kFUHf-46" value="5" style="shape=partialRectangle;html=1;whiteSpace=wrap;connectable=0;fillColor=none;top=0;left=0;bottom=0;right=0;overflow=hidden;strokeWidth=2;shadow=1;" vertex="1" parent="dK96n8MNeCOPLc1kFUHf-40">
          <mxGeometry x="300" width="60" height="40" as="geometry" />
        </mxCell>
        <mxCell id="dK96n8MNeCOPLc1kFUHf-47" value="6" style="shape=partialRectangle;html=1;whiteSpace=wrap;connectable=0;fillColor=none;top=0;left=0;bottom=0;right=0;overflow=hidden;strokeWidth=2;shadow=1;" vertex="1" parent="dK96n8MNeCOPLc1kFUHf-40">
          <mxGeometry x="360" width="60" height="40" as="geometry" />
        </mxCell>
        <mxCell id="dK96n8MNeCOPLc1kFUHf-48" value="" style="shape=table;html=1;whiteSpace=wrap;startSize=0;container=1;collapsible=0;childLayout=tableLayout;strokeWidth=2;shadow=1;" vertex="1" parent="1">
          <mxGeometry x="210" y="400" width="420" height="40" as="geometry" />
        </mxCell>
        <mxCell id="dK96n8MNeCOPLc1kFUHf-49" value="" style="shape=partialRectangle;html=1;whiteSpace=wrap;collapsible=0;dropTarget=0;pointerEvents=0;fillColor=none;top=0;left=0;bottom=0;right=0;points=[[0,0.5],[1,0.5]];portConstraint=eastwest;strokeWidth=2;shadow=1;" vertex="1" parent="dK96n8MNeCOPLc1kFUHf-48">
          <mxGeometry width="420" height="40" as="geometry" />
        </mxCell>
        <mxCell id="dK96n8MNeCOPLc1kFUHf-50" value="平民" style="shape=partialRectangle;html=1;whiteSpace=wrap;connectable=0;fillColor=none;top=0;left=0;bottom=0;right=0;overflow=hidden;strokeWidth=2;shadow=1;" vertex="1" parent="dK96n8MNeCOPLc1kFUHf-49">
          <mxGeometry width="60" height="40" as="geometry" />
        </mxCell>
        <mxCell id="dK96n8MNeCOPLc1kFUHf-51" value="预言家" style="shape=partialRectangle;html=1;whiteSpace=wrap;connectable=0;fillColor=none;top=0;left=0;bottom=0;right=0;overflow=hidden;strokeWidth=2;shadow=1;" vertex="1" parent="dK96n8MNeCOPLc1kFUHf-49">
          <mxGeometry x="60" width="60" height="40" as="geometry" />
        </mxCell>
        <mxCell id="dK96n8MNeCOPLc1kFUHf-52" value="狼人" style="shape=partialRectangle;html=1;whiteSpace=wrap;connectable=0;fillColor=none;top=0;left=0;bottom=0;right=0;overflow=hidden;strokeWidth=2;shadow=1;" vertex="1" parent="dK96n8MNeCOPLc1kFUHf-49">
          <mxGeometry x="120" width="60" height="40" as="geometry" />
        </mxCell>
        <mxCell id="dK96n8MNeCOPLc1kFUHf-53" value="平民" style="shape=partialRectangle;html=1;whiteSpace=wrap;connectable=0;fillColor=none;top=0;left=0;bottom=0;right=0;overflow=hidden;strokeWidth=2;shadow=1;" vertex="1" parent="dK96n8MNeCOPLc1kFUHf-49">
          <mxGeometry x="180" width="60" height="40" as="geometry" />
        </mxCell>
        <mxCell id="dK96n8MNeCOPLc1kFUHf-54" value="女巫" style="shape=partialRectangle;html=1;whiteSpace=wrap;connectable=0;fillColor=none;top=0;left=0;bottom=0;right=0;overflow=hidden;strokeWidth=2;shadow=1;" vertex="1" parent="dK96n8MNeCOPLc1kFUHf-49">
          <mxGeometry x="240" width="60" height="40" as="geometry" />
        </mxCell>
        <mxCell id="dK96n8MNeCOPLc1kFUHf-55" value="狼人" style="shape=partialRectangle;html=1;whiteSpace=wrap;connectable=0;fillColor=none;top=0;left=0;bottom=0;right=0;overflow=hidden;strokeWidth=2;shadow=1;" vertex="1" parent="dK96n8MNeCOPLc1kFUHf-49">
          <mxGeometry x="300" width="60" height="40" as="geometry" />
        </mxCell>
        <mxCell id="dK96n8MNeCOPLc1kFUHf-56" value="平民" style="shape=partialRectangle;html=1;whiteSpace=wrap;connectable=0;fillColor=none;top=0;left=0;bottom=0;right=0;overflow=hidden;strokeWidth=2;shadow=1;" vertex="1" parent="dK96n8MNeCOPLc1kFUHf-49">
          <mxGeometry x="360" width="60" height="40" as="geometry" />
        </mxCell>
        <mxCell id="dK96n8MNeCOPLc1kFUHf-57" value="people数组" style="text;html=1;strokeColor=none;align=center;verticalAlign=middle;whiteSpace=wrap;rounded=0;strokeWidth=2;shadow=1;fontStyle=1" vertex="1" parent="1">
          <mxGeometry x="130" y="410" width="70" height="20" as="geometry" />
        </mxCell>
        <mxCell id="dK96n8MNeCOPLc1kFUHf-58" value="" style="endArrow=classic;html=1;strokeWidth=2;exitX=0.32;exitY=1.018;exitDx=0;exitDy=0;exitPerimeter=0;" edge="1" parent="1" source="dK96n8MNeCOPLc1kFUHf-4">
          <mxGeometry width="50" height="50" relative="1" as="geometry">
            <mxPoint x="360" y="190" as="sourcePoint" />
            <mxPoint x="246" y="270" as="targetPoint" />
          </mxGeometry>
        </mxCell>
        <mxCell id="dK96n8MNeCOPLc1kFUHf-61" value="" style="endArrow=classic;html=1;strokeWidth=2;exitX=0.75;exitY=1.021;exitDx=0;exitDy=0;exitPerimeter=0;" edge="1" parent="1" source="dK96n8MNeCOPLc1kFUHf-4">
          <mxGeometry width="50" height="50" relative="1" as="geometry">
            <mxPoint x="411" y="200" as="sourcePoint" />
            <mxPoint x="311" y="270" as="targetPoint" />
          </mxGeometry>
        </mxCell>
        <mxCell id="dK96n8MNeCOPLc1kFUHf-63" value="" style="endArrow=classic;html=1;strokeWidth=2;exitX=0.921;exitY=1;exitDx=0;exitDy=0;exitPerimeter=0;" edge="1" parent="1" source="dK96n8MNeCOPLc1kFUHf-4">
          <mxGeometry width="50" height="50" relative="1" as="geometry">
            <mxPoint x="529.54" y="208.68000000000006" as="sourcePoint" />
            <mxPoint x="490" y="270" as="targetPoint" />
          </mxGeometry>
        </mxCell>
        <mxCell id="dK96n8MNeCOPLc1kFUHf-64" value="" style="endArrow=classic;html=1;strokeWidth=2;exitX=0.081;exitY=1.025;exitDx=0;exitDy=0;exitPerimeter=0;entryX=0.079;entryY=0;entryDx=0;entryDy=0;entryPerimeter=0;" edge="1" parent="1" source="dK96n8MNeCOPLc1kFUHf-40" target="dK96n8MNeCOPLc1kFUHf-49">
          <mxGeometry width="50" height="50" relative="1" as="geometry">
            <mxPoint x="140" y="400" as="sourcePoint" />
            <mxPoint x="190" y="350" as="targetPoint" />
          </mxGeometry>
        </mxCell>
        <mxCell id="dK96n8MNeCOPLc1kFUHf-65" value="" style="endArrow=classic;html=1;strokeWidth=2;exitX=0.081;exitY=1.025;exitDx=0;exitDy=0;exitPerimeter=0;entryX=0.079;entryY=0;entryDx=0;entryDy=0;entryPerimeter=0;" edge="1" parent="1">
          <mxGeometry width="50" height="50" relative="1" as="geometry">
            <mxPoint x="300.84" y="341" as="sourcePoint" />
            <mxPoint x="300.00000000000006" y="400" as="targetPoint" />
          </mxGeometry>
        </mxCell>
        <mxCell id="dK96n8MNeCOPLc1kFUHf-66" value="" style="endArrow=classic;html=1;strokeWidth=2;exitX=0.081;exitY=1.025;exitDx=0;exitDy=0;exitPerimeter=0;entryX=0.079;entryY=0;entryDx=0;entryDy=0;entryPerimeter=0;" edge="1" parent="1">
          <mxGeometry width="50" height="50" relative="1" as="geometry">
            <mxPoint x="480.8399999999998" y="341" as="sourcePoint" />
            <mxPoint x="480" y="400" as="targetPoint" />
          </mxGeometry>
        </mxCell>
      </root>
    </mxGraphModel>
  </diagram>
</mxfile>
